Input #0, mov,mp4,m4a,3gp,3g2,mj2, from '/home/hbattu/projects/huberman-gpt/huberman-audio/mp3/tmprgq7i3h1.mp4':
  Metadata:
    major_brand     : dash
    minor_version   : 0
    compatible_brands: iso6mp41
    creation_time   : 2022-05-23T07:34:46.000000Z
  Duration: 02:09:16.97, start: 0.000000, bitrate: 129 kb/s
    Stream #0:0(und): Audio: aac (LC) (mp4a / 0x6134706D), 44100 Hz, stereo, fltp, 0 kb/s (default)
    Metadata:
      creation_time   : 2022-05-23T07:34:46.000000Z
      handler_name    : ISO Media file produced by Google Inc.
Stream mapping:
  Stream #0:0 -> #0:0 (aac (native) -> mp3 (libmp3lame))
Press [q] to stop, [?] for help
[graph_0_in_0_0 @ 0x560a800f7540] tb:1/44100 samplefmt:fltp samplerate:44100 chlayout:0x3
Output #0, mp3, to '../huberman-audio/mp3/szqPAPKE5tQ.mp3':
  Metadata:
    major_brand     : dash
    minor_version   : 0
    compatible_brands: iso6mp41
    TSSE            : Lavf58.29.100
    Stream #0:0(und): Audio: mp3 (libmp3lame), 44100 Hz, stereo, fltp, delay 1105 (default)
    Metadata:
      creation_time   : 2022-05-23T07:34:46.000000Z
      handler_name    : ISO Media file produced by Google Inc.
      encoder         : Lavc58.54.100 libmp3lame
No more output streams to write to, finishing.
size=  121204kB time=02:09:16.98 bitrate= 128.0kbits/s speed=96.5x    
[AVIOContext @ 0x560a7ffe6900] Statistics: 0 seeks, 161 writeouts
video:0kB audio:121203kB subtitle:0kB other streams:0kB global headers:0kB muxing overhead: 0.000279%
Input file #0 (/home/hbattu/projects/huberman-gpt/huberman-audio/mp3/tmprgq7i3h1.mp4):
  Input stream #0:0 (audio): 334065 packets read (124111586 bytes); 334065 frames decoded (342082560 samples); 
  Total: 334065 packets (124111586 bytes) demuxed
Output file #0 (../huberman-audio/mp3/szqPAPKE5tQ.mp3):
  Output stream #0:0 (audio): 296947 frames encoded (342082560 samples); 296948 packets muxed (124112143 bytes); 
  Total: 296948 packets (124112143 bytes) muxed
[AVIOContext @ 0x560a80012900] Statistics: 2 seeks, 475 writeouts
[AVIOContext @ 0x560a7ffef880] Statistics: 125538642 bytes read, 0 seeks
